<?xml version="1.0" encoding="utf-8"?>
<!-- Generator: Adobe Illustrator 29.2.1, SVG Export Plug-In . SVG Version: 9.03 Build 55982)  -->
<svg version="1.1" id="Layer_1" xmlns="http://www.w3.org/2000/svg" xmlns:xlink="http://www.w3.org/1999/xlink" x="0px" y="0px"
	 viewBox="0 0 246 92" style="enable-background:new 0 0 246 92;" xml:space="preserve">
<style type="text/css">
	.st0{fill:#4F5052;}
	.st1{fill:#E96D07;}
	.st2{fill-rule:evenodd;clip-rule:evenodd;fill:#007396;}
	.st3{fill:#007396;}
	.st4{fill-rule:evenodd;clip-rule:evenodd;fill:#F5AF00;}
</style>
<g>
	<path class="st0" d="M84.52,83.63l1.83-8.86h5.01l-0.17,0.72h-4.18l-0.67,3.17h4.12l-0.15,0.73h-4.12l-0.73,3.55h4.73l-0.13,0.69
		H84.52z M90.11,83.63l2.69-3.42l-1.61-2.97h0.74l1.34,2.44l1.93-2.44h0.88l-2.47,3.11l1.82,3.29h-0.82l-1.44-2.75l-2.18,2.75H90.11
		z M99.25,77.72c-0.69,0-1.28,0.32-1.74,0.96c-0.47,0.65-0.7,1.44-0.7,2.38c0,0.65,0.15,1.17,0.48,1.54
		c0.32,0.38,0.75,0.57,1.3,0.57c0.72,0,1.32-0.32,1.79-0.95c0.47-0.64,0.71-1.45,0.71-2.44c0-0.64-0.17-1.14-0.49-1.51
		C100.27,77.91,99.82,77.72,99.25,77.72L99.25,77.72z M94.91,86.19l1.9-8.95h0.71l-0.18,0.83c0.3-0.33,0.62-0.58,0.96-0.73
		c0.34-0.15,0.71-0.23,1.1-0.23c0.76,0,1.36,0.25,1.81,0.74c0.45,0.5,0.67,1.16,0.67,2c0,1.11-0.3,2.04-0.91,2.8
		c-0.6,0.76-1.36,1.14-2.27,1.14c-0.54,0-1-0.12-1.38-0.36c-0.38-0.25-0.67-0.6-0.86-1.07l-0.81,3.83H94.91z M103.19,79.85h4
		c0.01-0.05,0.01-0.11,0.01-0.15c0-0.05,0-0.11,0-0.18c0-0.55-0.15-1-0.46-1.33c-0.3-0.32-0.71-0.48-1.23-0.48
		c-0.58,0-1.07,0.18-1.47,0.53C103.66,78.61,103.37,79.15,103.19,79.85L103.19,79.85z M106.84,81.68h0.72
		c-0.18,0.68-0.5,1.21-0.97,1.57c-0.48,0.36-1.07,0.55-1.78,0.55c-0.81,0-1.43-0.24-1.87-0.71c-0.43-0.48-0.65-1.15-0.65-2.03
		c0-1.16,0.29-2.1,0.9-2.85c0.6-0.74,1.35-1.12,2.28-1.12c0.79,0,1.4,0.24,1.83,0.71c0.43,0.47,0.65,1.13,0.65,1.99
		c0,0.11-0.01,0.3-0.04,0.59c0,0.07-0.01,0.12-0.01,0.15h-4.82c-0.01,0.14-0.02,0.27-0.03,0.39s-0.01,0.22-0.01,0.33
		c0,0.59,0.16,1.06,0.48,1.4c0.32,0.34,0.76,0.51,1.33,0.51c0.48,0,0.9-0.13,1.23-0.38C106.43,82.53,106.68,82.16,106.84,81.68
		L106.84,81.68z M108.15,83.63l1.3-6.4h0.67l-0.17,0.84c0.31-0.36,0.58-0.62,0.83-0.77c0.25-0.15,0.5-0.23,0.76-0.23
		c0.08,0,0.16,0.01,0.25,0.03c0.08,0.02,0.17,0.04,0.26,0.08l-0.15,0.71c-0.11-0.01-0.19-0.02-0.26-0.02
		c-0.06-0.01-0.12-0.01-0.17-0.01c-0.48,0-0.88,0.2-1.19,0.6c-0.3,0.41-0.54,1.06-0.73,1.96l-0.64,3.22H108.15z M113.36,83.63
		c-0.17,0.06-0.3,0.09-0.41,0.11c-0.11,0.01-0.21,0.03-0.31,0.03c-0.38,0-0.66-0.08-0.85-0.23c-0.19-0.15-0.28-0.39-0.28-0.69
		c0-0.12,0.01-0.26,0.03-0.42c0.02-0.15,0.06-0.34,0.11-0.54l0.84-4.07h-0.94l0.12-0.58h0.97l0.38-1.77h0.72l-0.39,1.77h1.18
		l-0.13,0.58h-1.19l-0.88,4.31c-0.02,0.13-0.04,0.25-0.06,0.33c-0.01,0.09-0.01,0.15-0.01,0.19c0,0.18,0.04,0.3,0.12,0.37
		c0.08,0.07,0.22,0.11,0.43,0.11c0.09,0,0.2-0.01,0.31-0.03c0.12-0.03,0.25-0.06,0.39-0.1L113.36,83.63z M115.41,75.79l0.21-1.01
		h0.84l-0.21,1.01H115.41z M113.83,83.63l1.35-6.4h0.72l-1.35,6.4H113.83z M116.55,81.64c0.05,0.53,0.22,0.92,0.53,1.17
		c0.31,0.26,0.74,0.39,1.3,0.39c0.52,0,0.92-0.12,1.21-0.34c0.29-0.23,0.43-0.55,0.43-0.95c0-0.45-0.53-0.88-1.57-1.28l-0.15-0.06
		c-0.66-0.26-1.11-0.51-1.35-0.76c-0.23-0.25-0.35-0.58-0.35-0.97c0-0.53,0.2-0.95,0.6-1.27c0.41-0.32,0.95-0.48,1.62-0.48
		c0.72,0,1.27,0.17,1.66,0.5c0.39,0.33,0.6,0.81,0.63,1.45h-0.69c-0.04-0.46-0.2-0.8-0.48-1.02c-0.28-0.22-0.69-0.33-1.23-0.33
		c-0.41,0-0.74,0.1-1,0.3c-0.27,0.2-0.39,0.46-0.39,0.77c0,0.25,0.08,0.46,0.25,0.62c0.17,0.17,0.53,0.36,1.11,0.6
		c0.88,0.35,1.45,0.66,1.71,0.93c0.25,0.27,0.38,0.61,0.38,1.02c0,0.55-0.22,1.01-0.67,1.37c-0.45,0.36-1.04,0.53-1.77,0.53
		c-0.78,0-1.38-0.19-1.82-0.56c-0.43-0.37-0.65-0.91-0.69-1.62H116.55z M122.39,79.85h4c0.01-0.05,0.01-0.11,0.01-0.15
		c0-0.05,0-0.11,0-0.18c0-0.55-0.15-1-0.46-1.33c-0.3-0.32-0.71-0.48-1.23-0.48c-0.58,0-1.07,0.18-1.47,0.53
		C122.86,78.61,122.58,79.15,122.39,79.85L122.39,79.85z M126.04,81.68h0.72c-0.18,0.68-0.5,1.21-0.97,1.57
		c-0.48,0.36-1.07,0.55-1.78,0.55c-0.81,0-1.43-0.24-1.87-0.71c-0.43-0.48-0.65-1.15-0.65-2.03c0-1.16,0.29-2.1,0.9-2.85
		c0.6-0.74,1.35-1.12,2.28-1.12c0.79,0,1.4,0.24,1.83,0.71c0.43,0.47,0.65,1.13,0.65,1.99c0,0.11-0.01,0.3-0.04,0.59
		c0,0.07-0.01,0.12-0.01,0.15h-4.82c-0.01,0.14-0.02,0.27-0.03,0.39c-0.01,0.12-0.01,0.22-0.01,0.33c0,0.59,0.16,1.06,0.48,1.4
		c0.32,0.34,0.76,0.51,1.33,0.51c0.48,0,0.9-0.13,1.23-0.38C125.63,82.53,125.88,82.16,126.04,81.68L126.04,81.68z M127.76,83.63
		l0.22-1.09h0.93l-0.23,1.09H127.76z M141.1,81.03c-0.24,0.86-0.68,1.55-1.33,2.07c-0.64,0.52-1.37,0.78-2.2,0.78
		c-1.12,0-2.01-0.35-2.64-1.05c-0.63-0.69-0.95-1.67-0.95-2.9c0-0.72,0.12-1.42,0.36-2.1c0.24-0.68,0.58-1.29,1.02-1.82
		c0.39-0.47,0.86-0.83,1.4-1.09c0.53-0.25,1.12-0.38,1.73-0.38c0.93,0,1.66,0.25,2.2,0.76c0.53,0.5,0.83,1.21,0.88,2.14h-0.79
		c-0.06-0.71-0.29-1.25-0.69-1.63c-0.41-0.38-0.95-0.57-1.65-0.57c-1.02,0-1.88,0.45-2.57,1.35c-0.69,0.9-1.04,2.01-1.04,3.32
		c0,1.02,0.25,1.82,0.74,2.39c0.5,0.58,1.19,0.87,2.06,0.87c0.6,0,1.14-0.19,1.63-0.58c0.48-0.39,0.83-0.91,1.04-1.57H141.1z
		 M141.38,83.63l1.87-8.86h0.72l-1.87,8.86H141.38z M146.83,77.69c-0.7,0-1.28,0.32-1.75,0.97c-0.46,0.65-0.69,1.45-0.69,2.42
		c0,0.67,0.16,1.19,0.48,1.56s0.76,0.55,1.35,0.55c0.69,0,1.28-0.32,1.75-0.98c0.48-0.65,0.72-1.45,0.72-2.41
		c0-0.69-0.15-1.22-0.47-1.58C147.9,77.86,147.44,77.69,146.83,77.69L146.83,77.69z M143.61,81.08c0-1.14,0.31-2.1,0.93-2.87
		c0.62-0.76,1.4-1.15,2.33-1.15c0.82,0,1.45,0.24,1.9,0.72c0.45,0.48,0.67,1.16,0.67,2.05c0,1.17-0.31,2.13-0.91,2.88
		c-0.61,0.74-1.39,1.12-2.34,1.12c-0.81,0-1.44-0.25-1.9-0.73C143.84,82.61,143.61,81.94,143.61,81.08L143.61,81.08z M150.34,81.64
		c0.05,0.53,0.22,0.92,0.53,1.17c0.3,0.26,0.74,0.39,1.3,0.39c0.51,0,0.91-0.12,1.2-0.34c0.29-0.23,0.43-0.55,0.43-0.95
		c0-0.45-0.52-0.88-1.57-1.28l-0.15-0.06c-0.66-0.26-1.11-0.51-1.35-0.76c-0.24-0.25-0.36-0.58-0.36-0.97c0-0.53,0.2-0.95,0.61-1.27
		c0.4-0.32,0.94-0.48,1.61-0.48c0.72,0,1.27,0.17,1.66,0.5c0.39,0.33,0.6,0.81,0.63,1.45h-0.68c-0.04-0.46-0.21-0.8-0.48-1.02
		c-0.28-0.22-0.69-0.33-1.23-0.33c-0.4,0-0.74,0.1-1,0.3c-0.26,0.2-0.39,0.46-0.39,0.77c0,0.25,0.08,0.46,0.25,0.62
		c0.17,0.17,0.54,0.36,1.12,0.6c0.88,0.35,1.45,0.66,1.7,0.93c0.25,0.27,0.39,0.61,0.39,1.02c0,0.55-0.22,1.01-0.68,1.37
		c-0.45,0.36-1.04,0.53-1.77,0.53c-0.78,0-1.38-0.19-1.81-0.56c-0.43-0.37-0.66-0.91-0.69-1.62H150.34z M156.18,79.85h4
		c0-0.05,0.01-0.11,0.01-0.15c0-0.05,0-0.11,0-0.18c0-0.55-0.15-1-0.45-1.33c-0.3-0.32-0.72-0.48-1.23-0.48
		c-0.59,0-1.07,0.18-1.47,0.53C156.65,78.61,156.36,79.15,156.18,79.85L156.18,79.85z M159.83,81.68h0.72
		c-0.18,0.68-0.5,1.21-0.98,1.57c-0.48,0.36-1.07,0.55-1.78,0.55c-0.81,0-1.43-0.24-1.87-0.71c-0.43-0.48-0.65-1.15-0.65-2.03
		c0-1.16,0.3-2.1,0.9-2.85c0.6-0.74,1.35-1.12,2.28-1.12c0.79,0,1.4,0.24,1.83,0.71c0.43,0.47,0.65,1.13,0.65,1.99
		c0,0.11-0.01,0.3-0.04,0.59c-0.01,0.07-0.01,0.12-0.01,0.15h-4.82c-0.01,0.14-0.02,0.27-0.03,0.39s-0.01,0.22-0.01,0.33
		c0,0.59,0.16,1.06,0.48,1.4c0.32,0.34,0.77,0.51,1.34,0.51c0.48,0,0.89-0.13,1.23-0.38C159.42,82.53,159.67,82.16,159.83,81.68
		L159.83,81.68z M161.15,83.63l1.29-6.4h0.68l-0.18,0.84c0.31-0.36,0.59-0.62,0.83-0.77c0.24-0.15,0.5-0.23,0.75-0.23
		c0.08,0,0.17,0.01,0.25,0.03c0.08,0.02,0.18,0.04,0.27,0.08l-0.15,0.71c-0.11-0.01-0.2-0.02-0.27-0.02
		c-0.06-0.01-0.12-0.01-0.17-0.01c-0.48,0-0.88,0.2-1.18,0.6c-0.31,0.41-0.55,1.06-0.73,1.96l-0.65,3.22H161.15z M169.6,83.63
		c-0.16,0.06-0.3,0.09-0.41,0.11c-0.11,0.01-0.22,0.03-0.31,0.03c-0.39,0-0.67-0.08-0.86-0.23c-0.19-0.15-0.28-0.39-0.28-0.69
		c0-0.12,0.01-0.26,0.03-0.42c0.03-0.15,0.06-0.34,0.11-0.54l0.84-4.07h-0.94l0.13-0.58h0.96l0.38-1.77h0.72l-0.38,1.77h1.17
		l-0.12,0.58h-1.2l-0.88,4.31c-0.02,0.13-0.04,0.25-0.05,0.33c-0.01,0.09-0.02,0.15-0.02,0.19c0,0.18,0.04,0.3,0.12,0.37
		c0.08,0.07,0.22,0.11,0.43,0.11c0.09,0,0.2-0.01,0.32-0.03c0.11-0.03,0.24-0.06,0.39-0.1L169.6,83.63z M173.52,77.69
		c-0.7,0-1.28,0.32-1.75,0.97c-0.47,0.65-0.7,1.45-0.7,2.42c0,0.67,0.16,1.19,0.48,1.56c0.32,0.36,0.76,0.55,1.35,0.55
		c0.69,0,1.28-0.32,1.76-0.98c0.47-0.65,0.71-1.45,0.71-2.41c0-0.69-0.15-1.22-0.47-1.58C174.59,77.86,174.13,77.69,173.52,77.69
		L173.52,77.69z M170.31,81.08c0-1.14,0.31-2.1,0.93-2.87c0.62-0.76,1.4-1.15,2.33-1.15c0.82,0,1.45,0.24,1.9,0.72
		c0.45,0.48,0.67,1.16,0.67,2.05c0,1.17-0.31,2.13-0.91,2.88c-0.61,0.74-1.39,1.12-2.34,1.12c-0.81,0-1.44-0.25-1.9-0.73
		C170.54,82.61,170.31,81.94,170.31,81.08L170.31,81.08z M179,86.13l0.12-0.64c0.1,0.01,0.18,0.01,0.25,0.02
		c0.07,0.01,0.13,0.01,0.19,0.01c0.2,0,0.36-0.05,0.48-0.14c0.13-0.1,0.26-0.27,0.39-0.52l0.67-1.3l-1.28-6.33h0.73l1.05,5.42
		l2.72-5.42h0.76l-3.84,7.64c-0.28,0.55-0.53,0.91-0.76,1.09c-0.23,0.18-0.51,0.26-0.84,0.26c-0.09,0-0.19-0.01-0.29-0.02
		C179.25,86.19,179.13,86.16,179,86.13L179,86.13z M187.85,77.69c-0.7,0-1.28,0.32-1.75,0.97c-0.46,0.65-0.7,1.45-0.7,2.42
		c0,0.67,0.16,1.19,0.48,1.56c0.32,0.36,0.76,0.55,1.35,0.55c0.7,0,1.28-0.32,1.76-0.98c0.48-0.65,0.71-1.45,0.71-2.41
		c0-0.69-0.15-1.22-0.46-1.58C188.92,77.86,188.46,77.69,187.85,77.69L187.85,77.69z M184.63,81.08c0-1.14,0.31-2.1,0.93-2.87
		c0.62-0.76,1.4-1.15,2.33-1.15c0.82,0,1.46,0.24,1.9,0.72c0.45,0.48,0.67,1.16,0.67,2.05c0,1.17-0.3,2.13-0.91,2.88
		c-0.6,0.74-1.39,1.12-2.34,1.12c-0.81,0-1.44-0.25-1.89-0.73C184.86,82.61,184.63,81.94,184.63,81.08L184.63,81.08z M196.81,77.24
		l-1.34,6.4h-0.69l0.2-0.96c-0.35,0.37-0.71,0.65-1.08,0.83c-0.36,0.18-0.76,0.27-1.16,0.27c-0.55,0-0.99-0.15-1.3-0.43
		c-0.32-0.29-0.47-0.69-0.47-1.2c0-0.11,0.01-0.23,0.02-0.36c0.01-0.13,0.04-0.25,0.06-0.39l0.88-4.16h0.72l-0.9,4.27
		c-0.03,0.12-0.05,0.24-0.06,0.34c-0.01,0.1-0.02,0.2-0.02,0.28c0,0.32,0.11,0.58,0.32,0.75c0.2,0.18,0.5,0.26,0.9,0.26
		c0.66,0,1.19-0.22,1.61-0.65c0.41-0.43,0.71-1.12,0.9-2.03l0.69-3.22H196.81z M197.11,83.63l0.22-1.09h0.93l-0.23,1.09H197.11z"/>
	<path class="st1" d="M157.23,52.62c-1.1-0.96-2.23-1.67-3.37-2.12c-1.16-0.46-2.36-0.69-3.64-0.69c-2.87,0-5.2,0.92-6.99,2.75
		c-1.8,1.83-2.69,4.22-2.69,7.17c0,1.47,0.22,2.81,0.65,3.99c0.44,1.18,1.12,2.23,2.01,3.14c0.89,0.9,1.91,1.58,3.06,2.05
		c1.14,0.47,2.38,0.71,3.69,0.71c1.27,0,2.51-0.22,3.72-0.66c1.21-0.44,2.36-1.09,3.44-1.94v2.38c-1.09,0.67-2.24,1.19-3.46,1.55
		c-1.22,0.36-2.43,0.54-3.61,0.54c-1.61,0-3.15-0.29-4.61-0.87c-1.47-0.58-2.72-1.4-3.77-2.45c-1.08-1.08-1.9-2.33-2.45-3.75
		c-0.55-1.43-0.83-2.99-0.83-4.69c0-1.67,0.29-3.23,0.86-4.67c0.57-1.45,1.4-2.7,2.46-3.74c1.04-1.03,2.3-1.84,3.77-2.41
		c1.47-0.58,3-0.88,4.59-0.88c1.42,0,2.72,0.2,3.93,0.59c1.21,0.39,2.31,0.97,3.29,1.77L157.23,52.62z M161.07,70.89h-1.92V47.2
		h1.92V70.89z M163.52,52.06c0-0.4,0.13-0.74,0.42-1.02c0.28-0.28,0.62-0.42,1.02-0.42c0.39,0,0.73,0.14,1.02,0.42
		c0.28,0.28,0.43,0.62,0.43,1.02c0,0.41-0.14,0.75-0.41,1.02c-0.28,0.28-0.62,0.41-1.03,0.41s-0.75-0.13-1.03-0.41
		C163.66,52.81,163.52,52.46,163.52,52.06L163.52,52.06z M163.99,70.89V57.34h1.92v13.54H163.99z M168.7,70.89V57.34h1.77v2.09
		c0.55-0.86,1.22-1.51,2.01-1.94c0.8-0.43,1.7-0.65,2.74-0.65c1.53,0,2.71,0.43,3.57,1.28c0.85,0.86,1.27,2.05,1.27,3.57v9.19h-1.89
		v-8.35c0-1.35-0.27-2.36-0.84-3.02c-0.55-0.66-1.42-0.99-2.6-0.99c-1.42,0-2.48,0.43-3.15,1.28c-0.67,0.85-1.01,2.18-1.01,4v7.07
		H168.7z M182.23,52.06c0-0.4,0.13-0.74,0.42-1.02c0.28-0.28,0.62-0.42,1.02-0.42c0.39,0,0.73,0.14,1.02,0.42
		c0.28,0.28,0.43,0.62,0.43,1.02c0,0.41-0.14,0.75-0.41,1.02c-0.28,0.28-0.62,0.41-1.03,0.41s-0.75-0.13-1.02-0.41
		C182.36,52.81,182.23,52.46,182.23,52.06L182.23,52.06z M182.69,70.89V57.34h1.92v13.54H182.69z M197.87,59.81
		c-0.63-0.43-1.3-0.76-2.01-0.98s-1.43-0.33-2.18-0.33c-1.66,0-2.99,0.53-3.98,1.61c-0.99,1.07-1.49,2.51-1.49,4.3
		c0,1.59,0.51,2.9,1.54,3.93c1.03,1.02,2.34,1.54,3.93,1.54c0.73,0,1.47-0.13,2.2-0.39c0.75-0.26,1.47-0.64,2.2-1.15v2.07
		c-0.66,0.37-1.39,0.65-2.18,0.84c-0.8,0.19-1.65,0.28-2.56,0.28c-2.05,0-3.74-0.67-5.05-2.04c-1.31-1.36-1.97-3.09-1.97-5.21
		c0-2.21,0.68-4,2.05-5.38c1.37-1.38,3.15-2.08,5.34-2.08c0.81,0,1.56,0.08,2.28,0.24c0.72,0.15,1.34,0.39,1.9,0.68L197.87,59.81z"
		/>
	<path class="st2" d="M128.96,64.78c-0.12,0.6-0.33,1.16-0.62,1.63c-0.3,0.48-0.69,0.88-1.2,1.16c-0.5,0.29-1.12,0.43-1.84,0.43
		c-0.74,0-1.35-0.15-1.84-0.43c-0.48-0.28-0.88-0.67-1.18-1.16c-0.29-0.48-0.5-1.03-0.62-1.63c-0.12-0.61-0.18-1.23-0.18-1.87
		c0-0.64,0.06-1.27,0.18-1.89c0.13-0.61,0.33-1.16,0.62-1.63c0.3-0.47,0.69-0.86,1.18-1.16c0.5-0.29,1.1-0.45,1.84-0.45
		c0.73,0,1.35,0.15,1.84,0.45c0.5,0.3,0.9,0.69,1.2,1.16c0.29,0.48,0.5,1.02,0.62,1.63c0.13,0.62,0.18,1.25,0.18,1.89
		C129.15,63.55,129.09,64.17,128.96,64.78L128.96,64.78z M132.91,59.44c-0.39-1.04-0.93-1.92-1.66-2.65
		c-0.72-0.73-1.57-1.3-2.58-1.7c-1.01-0.41-2.14-0.6-3.38-0.6c-1.25,0-2.36,0.19-3.37,0.6c-1,0.4-1.85,0.97-2.57,1.7
		c-0.72,0.73-1.27,1.61-1.66,2.65c-0.39,1.04-0.58,2.2-0.58,3.47c0,1.28,0.19,2.43,0.58,3.46c0.39,1.03,0.94,1.91,1.66,2.64
		c0.72,0.73,1.57,1.29,2.57,1.68c1.01,0.39,2.12,0.58,3.37,0.58c1.24,0,2.37-0.19,3.38-0.58c1.01-0.39,1.87-0.95,2.58-1.68
		c0.72-0.73,1.27-1.61,1.66-2.64c0.39-1.03,0.58-2.18,0.58-3.46C133.49,61.64,133.31,60.48,132.91,59.44L132.91,59.44z
		 M111.52,70.87h4.35V48.84h-4.35V70.87z M104.38,70.87h4.35V48.84h-4.35V70.87z M98.61,64.78c-0.12,0.6-0.33,1.16-0.62,1.63
		c-0.3,0.48-0.7,0.88-1.2,1.16c-0.5,0.29-1.12,0.43-1.85,0.43c-0.73,0-1.35-0.15-1.84-0.43c-0.48-0.28-0.88-0.67-1.17-1.16
		c-0.3-0.48-0.51-1.03-0.63-1.63c-0.13-0.61-0.18-1.23-0.18-1.87c0-0.64,0.06-1.27,0.18-1.89c0.12-0.61,0.33-1.16,0.63-1.63
		c0.29-0.47,0.69-0.86,1.17-1.16c0.49-0.29,1.11-0.45,1.84-0.45c0.74,0,1.35,0.15,1.85,0.45c0.5,0.3,0.9,0.69,1.2,1.16
		c0.29,0.48,0.5,1.02,0.62,1.63c0.13,0.62,0.18,1.25,0.18,1.89C98.79,63.55,98.73,64.17,98.61,64.78L98.61,64.78z M100.9,56.79
		c-0.71-0.73-1.57-1.3-2.59-1.7c-1-0.41-2.13-0.6-3.38-0.6c-1.24,0-2.37,0.19-3.37,0.6c-1,0.4-1.85,0.97-2.57,1.7
		c-0.72,0.73-1.27,1.61-1.66,2.65c-0.39,1.04-0.58,2.2-0.58,3.47c0,1.28,0.2,2.43,0.58,3.46s0.94,1.91,1.66,2.64
		c0.72,0.73,1.57,1.29,2.57,1.68c1,0.39,2.12,0.58,3.37,0.58c1.25,0,2.38-0.19,3.38-0.58c1.02-0.39,1.88-0.95,2.59-1.68
		c0.72-0.73,1.26-1.61,1.66-2.64c0.39-1.03,0.58-2.18,0.58-3.46c0-1.28-0.2-2.43-0.58-3.47C102.16,58.4,101.61,57.52,100.9,56.79
		L100.9,56.79z M81.28,64.82c-0.13,0.62-0.33,1.16-0.63,1.63c-0.29,0.46-0.68,0.84-1.16,1.12C79.01,67.86,78.42,68,77.7,68
		c-0.69,0-1.28-0.15-1.77-0.43c-0.49-0.28-0.88-0.66-1.18-1.12c-0.29-0.47-0.51-1-0.65-1.63c-0.13-0.61-0.2-1.24-0.2-1.88
		c0-0.66,0.06-1.3,0.18-1.91c0.12-0.61,0.34-1.16,0.63-1.63c0.29-0.47,0.68-0.86,1.16-1.16c0.48-0.29,1.07-0.45,1.79-0.45
		c0.69,0,1.28,0.15,1.76,0.45c0.48,0.3,0.87,0.69,1.18,1.18c0.3,0.48,0.53,1.03,0.66,1.64c0.13,0.62,0.2,1.25,0.2,1.89
		S81.4,64.21,81.28,64.82L81.28,64.82z M84.07,57.08c-0.59-0.79-1.33-1.41-2.23-1.89c-0.9-0.47-1.97-0.7-3.22-0.7
		c-0.97,0-1.87,0.19-2.69,0.58c-0.81,0.39-1.49,1.01-2.02,1.88h-0.06v-2.04h-4.13v26.35h4.35V68.89h0.06
		c0.53,0.79,1.21,1.38,2.03,1.77c0.83,0.41,1.73,0.6,2.71,0.6c1.16,0,2.18-0.22,3.05-0.67c0.86-0.46,1.58-1.06,2.17-1.82
		c0.58-0.76,1.02-1.64,1.3-2.62c0.28-0.98,0.43-2.01,0.43-3.09c0-1.14-0.15-2.22-0.43-3.25C85.1,58.77,84.66,57.86,84.07,57.08
		L84.07,57.08z M55.55,62.36l2.85-8.09h0.06l2.76,8.09H55.55z M56,48.84l-8.26,22.03h4.83l1.72-4.91h8.17l1.66,4.91h4.99
		l-8.17-22.03H56z"/>
	<path class="st3" d="M77.37,34.89l-1.11,1.12l-1.11-1.12H77.37z M76.54,43.95l1.09-3.84h1.45V29.42L64.02,46.06v7.34l7.52-8.31
		h3.48C75.01,45.08,76.22,45.21,76.54,43.95L76.54,43.95z M65.57,28.74h-2.22v2.24H61.4v-2.24h-2.22v-1.96h2.22v-2.24h1.95v2.24
		h2.22V28.74z M70.67,20.06H56.42v25.03h6.72l15.48-17.11L70.67,20.06z M86.45,37.97h5.15v-5.13l2.72-4.24H83.41l3.04,4.24V37.97z
		 M91.87,38.64H85.7v-1.48l-14.08,16h7.45l7.34-8.54h5.45V43.8h0.01v-4.72h-0.01V38.64z M86.46,51.38l2.57,2.02l2.57-2.02v-6.09
		h-5.15V51.38z"/>
	<path class="st4" d="M82.64,13.74c-0.05-0.01-0.12-0.03-0.17-0.05c-8.7-2.27-9.24-6.42-9-7.91c-0.61,1.7-0.56,5.06,0.08,7.08
		c1.04,1.05,4.51,2.59,7.86,2.92c0.36,0.05,0.72,0.12,1.06,0.18c8.77,1.67,9.51,8.88,6.32,12.37c0.35-0.67,4.03-8.17-4.99-9.71
		c-0.46-0.06-0.86-0.15-1.24-0.21c-6.4-1.19-6.97-2.15-7.29-2.26c-0.25,1.1,1.33,7.08,7.29,7.83h0.04c5.59,0.68,6.13,3.47,6.16,4.38
		v0.01v-0.01c0,0.01,0.01,0.01,0.01,0.02c0,0,0.01-0.01,0.01-0.03c1.61-1.16,2.63-3.25,2.73-5.52V22.2
		C91.36,18.65,88.87,14.87,82.64,13.74L82.64,13.74z"/>
	<path class="st1" d="M194.44,48.75h0.36c0.41,0,0.61,0.16,0.67,0.5c0.1,0.4,0.15,0.68,0.25,0.79h0.79
		c-0.06-0.11-0.14-0.29-0.24-0.79c-0.1-0.43-0.25-0.69-0.57-0.79v-0.04c0.37-0.12,0.67-0.37,0.67-0.77c0-0.32-0.14-0.55-0.34-0.69
		c-0.21-0.16-0.49-0.26-1.1-0.26c-0.53,0-0.95,0.06-1.24,0.1v3.25h0.75V48.75z M194.46,47.28c0.08-0.02,0.22-0.04,0.41-0.04
		c0.47,0,0.69,0.2,0.69,0.5c0,0.34-0.34,0.48-0.75,0.48h-0.35V47.28z M194.97,45.09c-1.87,0-3.35,1.43-3.35,3.26
		c0,1.82,1.48,3.28,3.33,3.28s3.31-1.45,3.31-3.28C198.26,46.52,196.8,45.09,194.97,45.09L194.97,45.09z M194.93,45.75
		c1.44,0,2.5,1.17,2.5,2.62c0,1.43-1.07,2.6-2.46,2.58c-1.44,0-2.52-1.15-2.52-2.6C192.45,46.92,193.53,45.75,194.93,45.75
		L194.93,45.75z"/>
</g>
</svg>
